<?xml version="1.0" encoding="utf-8"?>
<!-- Generator: Adobe Illustrator 19.0.0, SVG Export Plug-In . SVG Version: 6.00 Build 0)  -->
<svg version="1.1"
	 id="Layer_1" xmlns:sodipodi="http://sodipodi.sourceforge.net/DTD/sodipodi-0.dtd" xmlns:inkscape="http://www.inkscape.org/namespaces/inkscape" xmlns:rdf="http://www.w3.org/1999/02/22-rdf-syntax-ns#" xmlns:svg="http://www.w3.org/2000/svg" xmlns:dc="http://purl.org/dc/elements/1.1/" xmlns:cc="http://creativecommons.org/ns#"
	 xmlns="http://www.w3.org/2000/svg" xmlns:xlink="http://www.w3.org/1999/xlink" x="0px" y="0px" viewBox="-255 356.5 100 80.5"
	 style="enable-background:new -255 356.5 100 80.5;" xml:space="preserve">
<g transform="translate(0,-952.36218)">
	<path d="M-227.1,1310.7c-3.8,0-7,3.1-7,7v53.6c0,3.8,3.1,7,7,7h53.6c3.8,0,7-3.1,7-7v-53.6c0-3.8-3.1-7-7-7H-227.1z M-227.1,1315.4
		h53.6c1.3,0,2.3,1,2.3,2.3v53.6c0,1.3-1,2.3-2.3,2.3h-53.6c-1.3,0-2.3-1-2.3-2.3v-53.6C-229.5,1316.3-228.4,1315.4-227.1,1315.4z
		 M-241.3,1324.6c-1.2,0.1-2.1,1.2-2.1,2.3v53.6c0,3.8,3.1,7,7,7h53.6c1.3,0,2.3-1,2.3-2.3s-1-2.3-2.3-2.3c0,0,0,0-0.1,0h-53.6
		c-1.3,0-2.3-1-2.3-2.3v-53.6c0-1.3-1-2.3-2.3-2.3C-241.1,1324.6-241.2,1324.6-241.3,1324.6z M-200.6,1328.1
		c-1.2,0.1-2.1,1.2-2.1,2.3v11.6h-11.6c-0.1,0-0.1,0-0.2,0c-1.3,0.1-2.3,1.2-2.2,2.4s1.2,2.3,2.4,2.2h11.6v11.6c0,1.3,1,2.3,2.3,2.3
		c1.3,0,2.3-1,2.3-2.3c0,0,0,0,0-0.1v-11.6h11.6c1.3,0,2.3-1,2.3-2.3s-1-2.3-2.3-2.3c0,0,0,0-0.1,0h-11.6v-11.6c0-1.3-1-2.3-2.3-2.3
		C-200.3,1328.1-200.5,1328.1-200.6,1328.1z"/>
</g>
</svg>
